<svg xmlns="http://www.w3.org/2000/svg" viewBox="0 0 200 200" width="200" height="200"><g fill="none" stroke="#504c44" stroke-width="3" stroke-linecap="round" stroke-linejoin="round"><circle cx="56" cy="70" r="16" stroke="#504c44" stroke-width="2"/><circle cx="44" cy="62" r="5" fill="#504c44" stroke="none"/><circle cx="68" cy="78" r="5" fill="#504c44" stroke="none"/><path d="M20 150 C24.7 144.7 40.3 127 48 118 C55.7 109 63 99.7 66 96" stroke="#b3262e" stroke-dasharray="4 5"/><path d="M64.8 102.9 L66 96 L59.4 98.4" stroke="#b3262e"/><path d="M76 86 C79 84 92.7 71.7 94 74 C95.3 76.3 81.7 97.7 84 100 C86.3 102.3 106 86 108 88 C110 90 94 109.3 96 112 C98 114.7 116 105.3 120 104" stroke="#504c44" stroke-width="2"/><ellipse cx="140" cy="116" rx="44" ry="12" transform="rotate(-30 140 116)" stroke="#b3262e"/><circle cx="178.1" cy="94" r="5" fill="#504c44" stroke="none"/><circle cx="101.9" cy="138" r="5" fill="#504c44" stroke="none"/></g></svg>
