<svg xmlns="http://www.w3.org/2000/svg" viewBox="0 0 200 200" width="200" height="200"><g fill="none" stroke="#504c44" stroke-width="3" stroke-linecap="round" stroke-linejoin="round"><circle cx="165.2" cy="123.3" r="3.2" fill="#504c44" stroke="none"/><circle cx="40.7" cy="106" r="3.2" fill="#504c44" stroke="none"/><circle cx="43.4" cy="137.5" r="3.2" fill="#504c44" stroke="none"/><circle cx="136.3" cy="156.5" r="3.2" fill="#504c44" stroke="none"/><circle cx="154.3" cy="111.9" r="3.2" fill="#504c44" stroke="none"/><circle cx="152.1" cy="61.4" r="3.2" fill="#504c44" stroke="none"/><circle cx="162.7" cy="78.6" r="3.2" fill="#504c44" stroke="none"/><circle cx="74.8" cy="53.3" r="3.2" fill="#504c44" stroke="none"/><circle cx="36.7" cy="82.2" r="3.2" fill="#504c44" stroke="none"/><circle cx="121.8" cy="146.1" r="3.2" fill="#504c44" stroke="none"/><circle cx="122.3" cy="46" r="3.2" fill="#504c44" stroke="none"/><circle cx="49.2" cy="125.2" r="3.2" fill="#504c44" stroke="none"/><circle cx="44.3" cy="89.5" r="3.2" fill="#504c44" stroke="none"/><circle cx="56.2" cy="86.4" r="3.2" fill="#504c44" stroke="none"/><circle cx="111.5" cy="40.7" r="3.2" fill="#504c44" stroke="none"/><circle cx="145" cy="86" r="3.2" fill="#504c44" stroke="none"/><circle cx="104.4" cy="162.9" r="3.2" fill="#504c44" stroke="none"/><circle cx="133.9" cy="52.9" r="3.2" fill="#504c44" stroke="none"/><circle cx="54" cy="148" r="3.2" fill="#504c44" stroke="none"/><circle cx="53.6" cy="61.7" r="3.2" fill="#504c44" stroke="none"/><circle cx="158" cy="97.8" r="3.2" fill="#504c44" stroke="none"/><circle cx="138.2" cy="123" r="3.2" fill="#504c44" stroke="none"/><circle cx="95.3" cy="167.5" r="3.2" fill="#504c44" stroke="none"/><circle cx="74.9" cy="42.8" r="3.2" fill="#504c44" stroke="none"/><circle cx="93.4" cy="157.9" r="3.2" fill="#504c44" stroke="none"/><circle cx="150.1" cy="144.9" r="3.2" fill="#504c44" stroke="none"/><circle cx="75.5" cy="158.3" r="3.2" fill="#504c44" stroke="none"/><circle cx="162.2" cy="105.3" r="3.2" fill="#504c44" stroke="none"/><circle cx="125.8" cy="137.5" r="3.2" fill="#504c44" stroke="none"/><circle cx="73" cy="64.5" r="3.2" fill="#504c44" stroke="none"/><path d="M134.6 120 Q126.8 115.5 119.1 111" stroke="#b3262e" stroke-width="2"/><path d="M125.1 111 L119.1 111 L122.1 116.2" stroke="#b3262e" stroke-width="2"/><path d="M65.4 120 Q73.2 115.5 80.9 111" stroke="#b3262e" stroke-width="2"/><path d="M77.9 116.2 L80.9 111 L74.9 111" stroke="#b3262e" stroke-width="2"/><path d="M100 60 Q100 69 100 78" stroke="#b3262e" stroke-width="2"/><path d="M97 72.8 L100 78 L103 72.8" stroke="#b3262e" stroke-width="2"/><circle cx="95" cy="100" r="5.5" fill="#504c44" stroke="none"/><circle cx="105" cy="100" r="5.5" fill="#504c44" stroke="none"/><circle cx="100" cy="100" r="11" stroke="#504c44" stroke-width="2"/></g></svg>
