<svg xmlns="http://www.w3.org/2000/svg" viewBox="0 0 200 200" width="200" height="200"><g fill="none" stroke="#504c44" stroke-width="3" stroke-linecap="round" stroke-linejoin="round"><path d="M103.6 100 C92 53.6 -13.8 39.1 -10.9 100 C-13.8 160.9 92 146.4 103.6 100 C112.3 65.2 197.8 54.3 195.7 100 C197.8 145.7 112.3 134.8 103.6 100" stroke="#8a857c" stroke-dasharray="6 6"/><circle cx="52" cy="100" r="27" fill="#504c44" stroke="none"/><path d="M103.6 100 C106 98.7 112.9 94.3 118 92 C123.1 89.7 129.3 86.3 134 86 C138.7 85.7 144 89.3 146 90" stroke="#8a857c"/><path d="M138 90 L146 90 L142 83.1" stroke="#8a857c"/><ellipse cx="148" cy="100" rx="20" ry="8" transform="rotate(-20 148 100)" stroke="#8a857c"/><circle cx="148" cy="100" r="6" fill="#504c44" stroke="none"/></g></svg>
