<svg xmlns="http://www.w3.org/2000/svg" viewBox="0 0 200 200" width="200" height="200"><g fill="none" stroke="#504c44" stroke-width="3" stroke-linecap="round" stroke-linejoin="round"><circle cx="100" cy="38" r="36" stroke="#8a857c" stroke-width="2" stroke-dasharray="4 5"/><circle cx="64" cy="38" r="13" fill="#504c44" stroke="none"/><circle cx="136" cy="38" r="7.2" fill="#504c44" stroke="none"/><path d="M77 38 Q100 31 126.8 38" stroke="#8a857c"/><path d="M120.9 39 L126.8 38 L123 33.4" stroke="#8a857c"/><path d="M160 68 Q160 80 160 92" stroke="#504c44" stroke-width="2"/><path d="M157 86.8 L160 92 L163 86.8" stroke="#504c44" stroke-width="2"/><circle cx="100" cy="100" r="26" stroke="#8a857c" stroke-width="2" stroke-dasharray="4 5"/><circle cx="74" cy="100" r="10" fill="#504c44" stroke="none"/><circle cx="126" cy="100" r="5.5" fill="#504c44" stroke="none"/><path d="M84 100 Q100 93 118.5 100" stroke="#8a857c"/><path d="M112.6 101 L118.5 100 L114.6 95.4" stroke="#8a857c"/><path d="M160 130 Q160 142 160 154" stroke="#504c44" stroke-width="2"/><path d="M157 148.8 L160 154 L163 148.8" stroke="#504c44" stroke-width="2"/><circle cx="100" cy="162" r="16" stroke="#8a857c" stroke-width="2" stroke-dasharray="4 5"/><circle cx="84" cy="162" r="6" fill="#504c44" stroke="none"/><circle cx="116" cy="162" r="3.3" fill="#504c44" stroke="none"/></g></svg>
